<?xml version="1.0" encoding="UTF-8"?>
<!-- Created with Inkscape (http://www.inkscape.org/) -->
<svg width="210mm" height="297mm" version="1.1" viewBox="0 0 210 297" xml:space="preserve" xmlns="http://www.w3.org/2000/svg"><defs><clipPath id="clipPath75"><path d="m70.777 73.865v1.9048c0.17383-0.015 0.34752-0.03201 0.52142-0.04651 1.6999-0.24272 3.3971-0.50457 5.0948-0.76275-0.08452-0.36816-0.17959-0.73372-0.28784-1.0955zm7.3003 0c0.0714 0.26971 0.13621 0.54098 0.19689 0.81339 0.37089-0.05504 0.74202-0.10879 1.1131-0.16278 0.17343-0.17962 0.42632-0.34087 0.76946-0.45682-0.03799-0.06104-0.0667-0.12628-0.08578-0.19379zm11.782 2.7797c-0.08539 0.04473-0.1703 0.09039-0.25528 0.13591 0.02008 0.06194 0.03433 0.12675 0.03772 0.19585 0.07408 0.03283 0.14707 0.07801 0.21756 0.14314zm-18.798 1.0304c-0.09497 0.01331-0.18985 0.02707-0.28474 0.04082v0.04289c0.09484-0.02798 0.19005-0.05532 0.28474-0.08371zm17.495 0.79427c-4e-3 0.0016-0.01048 0.0059-0.02119 0.01291-0.08198 0.05356-0.15142 0.08977-0.21497 0.11886-0.16843 0.11782-0.33936 0.232-0.51211 0.34365 0.05122 0.3458 0.103 0.69153 0.1633 1.0356 0.05086 0.27721 0.21697 0.44721 0.49093 0.50333 0.3559 0.10354 0.7319 0.19107 1.0955 0.1478-0.18426-0.21772-0.33603-0.46632-0.47904-0.70952-0.28376-0.40913-0.28107-0.9314-0.47904-1.3705-0.03847-0.0646-0.03123-0.08682-0.04341-0.08217zm-4.3884 2.3787c-0.22691 0.09361-0.45523 0.18414-0.68523 0.27078-0.60094 0.23096-1.2085 0.44236-1.8216 0.63665h5.239c-0.22292-0.19863-0.40079-0.4412-0.53692-0.70642-0.09595 0.0563-0.2082 0.12221-0.40049 0.23513-1.0043 0.58973-1.7545 0.18358-1.7947-0.43615zm-13.391 0.71934v0.1881h0.14108c-0.05644-0.05945-0.10526-0.12186-0.14108-0.1881zm6.2833 0.11989c-0.14368 0.02384-0.28762 0.04568-0.4315 0.06821h0.43305c-2.64e-4 -0.02273-0.0013-0.04548-0.0016-0.06821z" fill="#f00"/></clipPath></defs><g fill="#e0e0e0"><rect x="66.581" y="84.32" width="76.801" height="5.3707" ry="2.6853" stroke-width=".25861"/><rect transform="matrix(1 0 -.28393 .95885 0 0)" x="120.86" y="91.86" width="43.787" height="33.047" ry="0" stroke-width=".57024"/><rect transform="matrix(-1 0 .28393 .95885 0 0)" x="-89.269" y="91.86" width="43.787" height="33.047" ry="0" stroke-width=".57024"/><circle cx="87.809" cy="124.05" r="4.295" stroke-width=".20649"/><circle cx="119.12" cy="123.89" r="4.295" stroke-width=".20649"/><g stroke-width=".26458"><path transform="translate(12.89 45.382)" d="m47.262 106.61c0.98463 1.0741 1.9693 2.1483 2.9539 3.2224"/><path d="m61.763 146.35c15.127 0.0895 30.255 0.17902 45.382 0.26853"/><path d="m22.406 173.74 11.899-2.7532"/></g></g><path d="m105.13 113.79c-3.017-2.7459-6.1648-5.3517-9.0509-8.2377-0.38144-0.38144-0.77378-0.75913-1.0899-1.1974-0.39591-0.54881-0.71217-1.156-0.99512-1.7721-0.26934-0.5864-0.50313-1.1941-0.66341-1.82-0.16821-0.65685-0.26176-1.3347-0.30801-2.0115-0.03484-0.50972-0.04592-1.0265 0.02371-1.5326 0.06752-0.49096 0.20535-0.97329 0.37909-1.4368 0.17518-0.46736 0.39914-0.91861 0.66342-1.341 0.24655-0.39409 0.52246-0.77626 0.85296-1.1016 0.38023-0.37425 0.81195-0.70393 1.2794-0.95788 0.48856-0.26538 1.029-0.42601 1.5638-0.57472 0.32557-0.09053 0.65895-0.1595 0.99513-0.19157 0.4757-0.0454 0.95816-0.04959 1.4335-2.1e-5 0.46145 0.04812 0.92527 0.13025 1.3624 0.28736 0.35611 0.128 0.68572 0.32557 1.007 0.52683 0.29538 0.18505 0.58552 0.38463 0.84112 0.62261 0.23059 0.21471 0.41012 0.47943 0.61603 0.71841 0.22053 0.25596 0.44228 0.51087 0.66341 0.7663 0.14217 0.20754 0.28432 0.41508 0.42648 0.62262 0.22114-0.30334 0.42314-0.62191 0.66342-0.90998 0.3672-0.44027 0.74599-0.87779 1.1847-1.2452 0.3778-0.31646 0.78937-0.60027 1.2321-0.81419 0.50924-0.24608 1.0568-0.41924 1.6111-0.52683 0.4664-0.09053 0.94711-0.11589 1.4216-0.09578 0.52674 0.02234 1.06 0.08223 1.5638 0.23946 0.45225 0.14117 0.87562 0.37303 1.2794 0.62262 0.49052 0.30318 0.96521 0.64523 1.3742 1.0537 0.35231 0.35182 0.65457 0.75786 0.9122 1.1854 0.21047 0.34925 0.38076 0.72582 0.50941 1.1135 0.11821 0.35626 0.18123 0.73004 0.23693 1.1016 0.0547 0.36441 0.09 0.73301 0.0948 1.1016 7e-3 0.52776-0.0321 1.0565-0.0948 1.5805-0.0697 0.58279-0.17351 1.1625-0.31208 1.7326-0.094 0.38682-0.19124 0.77701-0.35133 1.141-0.2014 0.45783-0.47169 0.88423-0.75819 1.2931-0.44064 0.62889-0.94627 1.2111-1.469 1.7721-0.81966 0.87967-1.7375 1.6603-2.6063 2.4905" fill="#88ac27" stroke-width=".13276"/><g stroke-width=".26458"><path d="m128.55 84.878 3.4179-9.684s8.6734-0.28804 11.013 0 2.4469 0.23204 3.0381 0.75953 0.55909 0.94854 0.56965 1.5191c0.0106 0.57053-0.10188 1.2284-0.56965 1.7089s-0.36941 0.45496-2.0887 0.75953-8.254 0.01558-8.254 0.01558l-1.6112 4.6322z" fill="#e0e0e0"/><path d="m88.865 73.675h-1.7089"/><path d="m81.84 73.865c-2.0582 0.49335-3.9787 1.3884-5.8864 2.2786-0.51301 0.23941-1.005 0.5223-1.5191 0.75953-0.30948 0.14284-0.66581 0.1907-0.94942 0.37977-0.29791 0.19861-0.47309 0.5447-0.75953 0.75953-1.301 0.97577-1.0894 0.2549-1.8988 2.2786-0.1426 0.35652 0.03133 1.155 0.37977 1.3292 0.32303 0.16152 3.8994 0 4.1774 0 1.762 0 4.4154 0.23727 6.0763 0 1.5057-0.21509 0.01188-0.19464 1.8988-0.94942 0.23507-0.09403 0.51238 0.05492 0.75953 0 0.33274-0.07394 0.62168-0.28613 0.94942-0.37976 0.12172-0.03478 0.25967 0.04003 0.37976 0 0.85262-0.28421 3.2134-2.0741 3.7977-2.6584 0.22138-0.22138 0.50337-0.42812 0.56965-0.75953 0.01966-0.09826 0.08968-1.6529 0-1.7089-1.6428-1.0268-3.8601-0.95566-5.6965-1.1393-1.2588-0.12588-2.5283-0.18988-3.7977-0.18988" clip-path="url(#clipPath75)"/></g></svg>
