<?xml version="1.0" encoding="UTF-8" standalone="no"?>
<svg
   width="16"
   height="16"
   fill="currentColor"
   class="bi bi-bag-heart"
   
   viewBox="0 0 16 16"
   version="1.1"
   id="svg1"
   xml:space="preserve"
   xmlns="http://www.w3.org/2000/svg"
   xmlns:svg="http://www.w3.org/2000/svg"><defs
     id="defs1"><clipPath
       clipPathUnits="userSpaceOnUse"
       id="clipPath75"><path
         id="path76"
         style="fill:#ff0000;fill-opacity:1;fill-rule:nonzero;stroke:none;stroke-width:0.264583"
         d="m 70.776558,73.864743 v 1.904793 c 0.173833,-0.015 0.347519,-0.03201 0.521417,-0.04651 1.69994,-0.242724 3.397086,-0.504569 5.094779,-0.762746 -0.08452,-0.368163 -0.179586,-0.733716 -0.28784,-1.095539 z m 7.30033,0 c 0.0714,0.269708 0.136213,0.540975 0.196887,0.813387 0.370893,-0.05504 0.742024,-0.108794 1.11311,-0.162782 0.173429,-0.179618 0.426323,-0.340868 0.769464,-0.456819 -0.03799,-0.06104 -0.0667,-0.126278 -0.08578,-0.193786 z m 11.782227,2.779675 c -0.08539,0.04473 -0.170297,0.09039 -0.255281,0.135908 0.02008,0.06194 0.03433,0.126752 0.03772,0.195853 0.07408,0.03283 0.147074,0.07801 0.217557,0.143145 z m -18.797818,1.030428 c -0.09497,0.01331 -0.189852,0.02707 -0.284739,0.04082 v 0.04289 c 0.09484,-0.02798 0.19005,-0.05532 0.284739,-0.08371 z m 17.494538,0.794266 c -0.004,0.0016 -0.01048,0.0059 -0.02119,0.01291 -0.08198,0.05356 -0.151416,0.08977 -0.214974,0.118856 -0.168426,0.117825 -0.339362,0.232 -0.512114,0.343649 0.05122,0.345805 0.103002,0.691528 0.163298,1.035595 0.05086,0.277207 0.216972,0.447207 0.490927,0.503328 0.355904,0.103542 0.731898,0.191074 1.095539,0.147796 -0.184262,-0.217723 -0.336027,-0.466315 -0.479039,-0.709517 -0.283758,-0.409128 -0.281067,-0.9314 -0.479041,-1.37046 -0.03847,-0.0646 -0.03123,-0.08682 -0.04341,-0.08217 z m -4.388363,2.378667 c -0.226907,0.09361 -0.455226,0.184142 -0.685229,0.270783 -0.60094,0.23096 -1.208455,0.442362 -1.821595,0.636653 h 5.238956 c -0.222916,-0.198633 -0.400793,-0.4412 -0.536916,-0.706416 -0.09595,0.0563 -0.208195,0.122214 -0.400492,0.235127 -1.004337,0.58973 -1.754502,0.183579 -1.794724,-0.436147 z m -13.390914,0.719336 v 0.1881 h 0.141078 c -0.05644,-0.05945 -0.105256,-0.121861 -0.141078,-0.1881 z m 6.283338,0.119888 c -0.143685,0.02384 -0.287621,0.04568 -0.431499,0.06821 h 0.433049 c -2.64e-4,-0.02273 -0.0013,-0.04548 -0.0016,-0.06821 z" /></clipPath></defs><g
     id="layer1"
     transform="matrix(0.19796891,0,0,0.24856415,-13.094268,-16.957034)"><rect
       style="fill:#e0e0e0;stroke-width:0.258606"
       id="rect1"
       width="76.801079"
       height="5.3706989"
       x="66.58094"
       y="84.320068"
       ry="2.6853495" /><rect
       style="fill:#e0e0e0;stroke-width:0.570244"
       id="rect2"
       width="43.787045"
       height="33.047176"
       x="120.85855"
       y="91.859901"
       ry="0"
       transform="matrix(1,0,-0.2839256,0.95884631,0,0)" /><rect
       style="fill:#e0e0e0;stroke-width:0.570244"
       id="rect2-5"
       width="43.787045"
       height="33.047176"
       x="-89.269295"
       y="91.860397"
       ry="0"
       transform="matrix(-1,0,0.2839256,0.95884631,0,0)" /><circle
       style="fill:#e0e0e0;stroke-width:0.206491"
       id="path3"
       cx="87.809464"
       cy="124.05382"
       r="4.2950001" /><circle
       style="fill:#e0e0e0;stroke-width:0.206491"
       id="path3-7"
       cx="119.12414"
       cy="123.88667"
       r="4.2950001" /><path
       style="fill:#e0e0e0;stroke-width:0.264583"
       d="m 47.262205,106.6085 c 0.984629,1.07414 1.969259,2.14828 2.953888,3.22242"
       id="path8"
       transform="translate(12.889693,45.382459)" /><path
       style="fill:#e0e0e0;stroke-width:0.264583"
       d="m 61.76311,146.35172 c 15.127486,0.0895 30.254972,0.17902 45.38246,0.26853"
       id="path9" /><path
       style="fill:#e0e0e0;stroke-width:0.264583"
       d="M 22.406206,173.74304 34.30538,170.98983"
       id="path21" /><path
       style="fill:#88ac27;fill-opacity:1;stroke-width:0.132762"
       d="m 105.12508,113.79268 c -3.01696,-2.74591 -6.164806,-5.35167 -9.050878,-8.23772 -0.38144,-0.38144 -0.773775,-0.75913 -1.089899,-1.19735 -0.395909,-0.54881 -0.712169,-1.15601 -0.995123,-1.77207 -0.269337,-0.5864 -0.503133,-1.19407 -0.663414,-1.81996 -0.168212,-0.65685 -0.261756,-1.334652 -0.308014,-2.011535 -0.03484,-0.509716 -0.04592,-1.026535 0.02371,-1.532599 0.06752,-0.490957 0.205351,-0.973286 0.379093,-1.436814 0.175175,-0.467358 0.399142,-0.918614 0.663415,-1.341024 0.246553,-0.394091 0.522459,-0.776255 0.852964,-1.101558 0.380231,-0.374246 0.811946,-0.703927 1.279443,-0.957875 0.488559,-0.265384 1.028991,-0.426012 1.563765,-0.574725 0.325572,-0.09053 0.658947,-0.159499 0.995126,-0.191572 0.475702,-0.0454 0.958156,-0.04959 1.433452,-2.1e-5 0.46145,0.04812 0.92527,0.130246 1.36236,0.287363 0.35611,0.128005 0.68572,0.32557 1.00697,0.526833 0.29538,0.185054 0.58552,0.384631 0.84112,0.622614 0.23059,0.214706 0.41012,0.479434 0.61603,0.718409 0.22053,0.25596 0.44228,0.510867 0.66341,0.766297 0.14217,0.207544 0.28432,0.415081 0.42648,0.62262 0.22114,-0.303335 0.42314,-0.621908 0.66342,-0.909982 0.3672,-0.440268 0.74599,-0.877792 1.18467,-1.245237 0.3778,-0.316455 0.78937,-0.600272 1.23206,-0.814191 0.50924,-0.246083 1.05683,-0.419237 1.61114,-0.526833 0.4664,-0.09053 0.94711,-0.115894 1.42161,-0.09578 0.52674,0.02234 1.06004,0.08223 1.56377,0.239464 0.45225,0.141172 0.87562,0.37303 1.27944,0.622619 0.49052,0.303177 0.96521,0.645234 1.37421,1.053665 0.35231,0.351818 0.65457,0.757858 0.9122,1.185369 0.21047,0.34925 0.38076,0.72582 0.50941,1.113529 0.11821,0.356262 0.18123,0.730037 0.23693,1.101559 0.0547,0.364408 0.09,0.733013 0.0948,1.101553 0.007,0.527756 -0.0321,1.056516 -0.0948,1.580498 -0.0697,0.582794 -0.17351,1.162544 -0.31208,1.732634 -0.094,0.38682 -0.19124,0.77701 -0.35133,1.14099 -0.2014,0.45783 -0.47169,0.88423 -0.75819,1.29313 -0.44064,0.62889 -0.94627,1.21106 -1.469,1.77207 -0.81966,0.87967 -1.73751,1.66032 -2.60627,2.49047"
       id="path25" /><path
       style="fill:#e0e0e0;stroke-width:0.264583"
       d="m 128.55086,84.877748 3.4179,-9.684039 c 0,0 8.67341,-0.288044 11.01322,0 2.33981,0.288044 2.44691,0.232035 3.03813,0.759532 0.59122,0.527497 0.55909,0.948538 0.56965,1.519065 0.0106,0.570527 -0.10188,1.22836 -0.56965,1.708947 -0.46777,0.480587 -0.36941,0.454961 -2.08872,0.759534 -1.71931,0.304573 -8.25395,0.01558 -8.25395,0.01558 l -1.61121,4.632232 z"
       id="path26" /><path
       style="fill:#000000;fill-opacity:1;stroke-width:0.264583"
       d="m 88.865291,73.674644 c -0.569648,0 -1.139299,0 -1.708947,0"
       id="path41" /><path
       style="fill:#000000;fill-opacity:1;stroke-width:0.264583"
       d="m 81.839617,73.864527 c -2.058229,0.49335 -3.978712,1.388354 -5.886376,2.278597 -0.513009,0.239406 -1.005049,0.522296 -1.519066,0.759532 -0.309478,0.142838 -0.665811,0.190698 -0.949415,0.379767 -0.297913,0.198609 -0.473093,0.544703 -0.759531,0.759531 -1.301028,0.975773 -1.089353,0.2549 -1.898833,2.2786 -0.142605,0.356515 0.03133,1.154961 0.379767,1.329179 0.323033,0.161518 3.899448,0 4.17743,0 1.76195,0 4.415401,0.237268 6.076259,0 1.505654,-0.215093 0.01188,-0.194635 1.89883,-0.949415 0.235069,-0.09403 0.512384,0.05492 0.759531,0 0.332735,-0.07394 0.621681,-0.286126 0.949418,-0.379764 0.121716,-0.03478 0.259673,0.04003 0.379764,0 0.852623,-0.284208 3.213381,-2.074082 3.797663,-2.658364 0.221385,-0.221385 0.503367,-0.428125 0.56965,-0.759534 0.01966,-0.09826 0.08968,-1.652897 0,-1.708947 -1.642835,-1.026771 -3.860112,-0.955661 -5.696495,-1.139298 -1.258779,-0.125878 -2.528347,-0.189884 -3.797659,-0.189884"
       id="path42"
       clip-path="url(#clipPath75)" /></g>
       </svg>
