<?xml version="1.0" encoding="UTF-8"?>
<!DOCTYPE svg PUBLIC "-//W3C//DTD SVG 1.1//EN" "http://www.w3.org/Graphics/SVG/1.1/DTD/svg11.dtd">
<svg xmlns="http://www.w3.org/2000/svg" version="1.1" width="1667px" height="1667px" style="shape-rendering:geometricPrecision; text-rendering:geometricPrecision; image-rendering:optimizeQuality; fill-rule:evenodd; clip-rule:evenodd" xmlns:xlink="http://www.w3.org/1999/xlink">
<g><path style="opacity:1" color="#FFFF00" d="M 1444.5,176.5 C 1485.85,176.121 1527.18,176.621 1568.5,178C 1590.04,180.03 1611.38,183.363 1632.5,188C 1652.19,198.694 1661.19,215.361 1659.5,238C 1660.95,259.988 1653.95,278.654 1638.5,294C 1620.78,300.678 1602.44,304.678 1583.5,306C 1533.91,307.624 1484.41,306.79 1435,303.5C 1423.89,340.618 1413.39,377.951 1403.5,415.5C 1451.52,415.045 1499.52,415.545 1547.5,417C 1562.49,421.33 1573.99,430.163 1582,443.5C 1597.33,471.833 1597.33,500.167 1582,528.5C 1574,541.827 1562.5,550.66 1547.5,555C 1526.19,556.376 1504.86,556.876 1483.5,556.5C 1422.5,815.833 1361.5,1075.17 1300.5,1334.5C 1240.5,1334.33 1180.5,1334.5 1120.5,1335C 1149.17,1349.02 1167.67,1371.52 1176,1402.5C 1187.8,1446.7 1180.14,1487.04 1153,1523.5C 1124.45,1554.48 1091.28,1560.64 1053.5,1542C 1033.35,1528.52 1019.19,1510.35 1011,1487.5C 996.094,1441.83 1002.43,1399.5 1030,1360.5C 1039.55,1349.27 1051.05,1340.77 1064.5,1335C 863.167,1334.33 661.833,1334.33 460.5,1335C 483.659,1340.83 501.826,1353.67 515,1373.5C 541.17,1419.26 542.17,1465.6 518,1512.5C 504.688,1535.4 485.188,1549.9 459.5,1556C 425.972,1559.82 399.472,1547.98 380,1520.5C 357.246,1484.82 351.579,1446.49 363,1405.5C 371.761,1375.08 390.261,1352.92 418.5,1339C 423.077,1337.36 427.744,1336.02 432.5,1335C 389.596,1334.83 346.762,1334.33 304,1333.5C 243,1074.83 182,816.167 121,557.5C 98.88,556.9 76.7133,556.067 54.5,555C 34.2202,548.723 20.3869,535.556 13,515.5C 3.88605,487.255 7.55272,460.922 24,436.5C 33.6809,423.743 46.5143,416.91 62.5,416C 471.834,415.833 881.167,415.333 1290.5,414.5C 1312.91,336.27 1334.91,257.936 1356.5,179.5C 1386,178.672 1415.33,177.672 1444.5,176.5 Z"/></g>
<g><path style="opacity:1" color="#FFFF00" d="M 487.5,217.5 C 488.918,221.193 488.585,224.86 486.5,228.5C 484.148,226.822 482.814,224.489 482.5,221.5C 484.21,220.113 485.877,218.779 487.5,217.5 Z"/></g>
<g><path style="opacity:1" color="#FFFF00" d="M 223.5,348.5 C 223.897,347.475 224.563,347.308 225.5,348C 224.906,348.464 224.239,348.631 223.5,348.5 Z"/></g>
<g><path style="opacity:1" fill="yellow" d="M 674.5,604.5 C 693.011,603.517 711.011,606.017 728.5,612C 744.389,620.224 758.222,631.057 770,644.5C 781.915,661.323 793.081,678.657 803.5,696.5C 816.397,671.558 833.064,649.392 853.5,630C 886.599,603.774 923.265,597.441 963.5,611C 1017.92,640.842 1047.42,687.009 1052,749.5C 1054.13,793.503 1049.8,836.836 1039,879.5C 1030.06,905.056 1017.72,928.723 1002,950.5C 981.804,977.702 960.47,1004.04 938,1029.5C 893.323,1079.67 848.49,1129.67 803.5,1179.5C 758.843,1130.01 714.343,1080.34 670,1030.5C 646.955,1003.12 624.289,975.457 602,947.5C 565.408,887.013 549.408,821.347 554,750.5C 558.713,711.428 573.046,676.428 597,645.5C 618.051,622.725 643.884,609.059 674.5,604.5 Z"/></g>
</svg>



