<?xml version="1.0" encoding="UTF-8" standalone="no"?>
<svg
   width="16"
   height="16"
   fill="currentColor"
   class="bi bi-facebook"
   viewBox="0 0 16 16"
   version="1.1"
   id="svg1"
   xmlns="http://www.w3.org/2000/svg"
   xmlns:svg="http://www.w3.org/2000/svg">
  <defs
     id="defs1">
    <clipPath
       clipPathUnits="userSpaceOnUse"
       id="clipPath75">
      <path
         id="path76"
         style="fill:#ff0000;fill-opacity:1;fill-rule:nonzero;stroke:none;stroke-width:0.264583"
         d="m 70.776558,73.864743 v 1.904793 c 0.173833,-0.015 0.347519,-0.03201 0.521417,-0.04651 1.69994,-0.242724 3.397086,-0.504569 5.094779,-0.762746 -0.08452,-0.368163 -0.179586,-0.733716 -0.28784,-1.095539 z m 7.30033,0 c 0.0714,0.269708 0.136213,0.540975 0.196887,0.813387 0.370893,-0.05504 0.742024,-0.108794 1.11311,-0.162782 0.173429,-0.179618 0.426323,-0.340868 0.769464,-0.456819 -0.03799,-0.06104 -0.0667,-0.126278 -0.08578,-0.193786 z m 11.782227,2.779675 c -0.08539,0.04473 -0.170297,0.09039 -0.255281,0.135908 0.02008,0.06194 0.03433,0.126752 0.03772,0.195853 0.07408,0.03283 0.147074,0.07801 0.217557,0.143145 z m -18.797818,1.030428 c -0.09497,0.01331 -0.189852,0.02707 -0.284739,0.04082 v 0.04289 c 0.09484,-0.02798 0.19005,-0.05532 0.284739,-0.08371 z m 17.494538,0.794266 c -0.004,0.0016 -0.01048,0.0059 -0.02119,0.01291 -0.08198,0.05356 -0.151416,0.08977 -0.214974,0.118856 -0.168426,0.117825 -0.339362,0.232 -0.512114,0.343649 0.05122,0.345805 0.103002,0.691528 0.163298,1.035595 0.05086,0.277207 0.216972,0.447207 0.490927,0.503328 0.355904,0.103542 0.731898,0.191074 1.095539,0.147796 -0.184262,-0.217723 -0.336027,-0.466315 -0.479039,-0.709517 -0.283758,-0.409128 -0.281067,-0.9314 -0.479041,-1.37046 -0.03847,-0.0646 -0.03123,-0.08682 -0.04341,-0.08217 z m -4.388363,2.378667 c -0.226907,0.09361 -0.455226,0.184142 -0.685229,0.270783 -0.60094,0.23096 -1.208455,0.442362 -1.821595,0.636653 h 5.238956 c -0.222916,-0.198633 -0.400793,-0.4412 -0.536916,-0.706416 -0.09595,0.0563 -0.208195,0.122214 -0.400492,0.235127 -1.004337,0.58973 -1.754502,0.183579 -1.794724,-0.436147 z m -13.390914,0.719336 v 0.1881 h 0.141078 c -0.05644,-0.05945 -0.105256,-0.121861 -0.141078,-0.1881 z m 6.283338,0.119888 c -0.143685,0.02384 -0.287621,0.04568 -0.431499,0.06821 h 0.433049 c -2.64e-4,-0.02273 -0.0013,-0.04548 -0.0016,-0.06821 z" />
    </clipPath>
  </defs>
  <rect
     style="fill:#e0e0e0;stroke-width:0.0537601"
     id="rect1"
     width="15.404212"
     height="1.1571835"
     x="-0.022683216"
     y="4.5695472"
     ry="0.57859176" />
  <rect
     style="fill:#e0e0e0;stroke-width:0.118224"
     id="rect2"
     width="8.7824917"
     height="7.0820236"
     x="7.1155877"
     y="5.5802026"
     ry="0"
     transform="matrix(1,0,-0.26573802,0.96404528,0,0)" />
  <rect
     style="fill:#e0e0e0;stroke-width:0.118224"
     id="rect2-5"
     width="8.7824917"
     height="7.0820236"
     x="-8.2763329"
     y="5.580307"
     ry="0"
     transform="matrix(-1,0,0.26573802,0.96404528,0,0)" />
  <ellipse
     style="fill:#e0e0e0;stroke-width:0.0429262"
     id="path3"
     cx="4.2351832"
     cy="13.130672"
     rx="0.86146051"
     ry="0.92541093" />
  <ellipse
     style="fill:#e0e0e0;stroke-width:0.0429262"
     id="path3-7"
     cx="10.516055"
     cy="13.09466"
     rx="0.86146051"
     ry="0.92541093" />
  <path
     style="fill:#88ac27;fill-opacity:1;stroke-width:0.0275991"
     d="M 7.7082269,10.919784 C 7.1031077,10.328145 6.4717348,9.7667004 5.8928668,9.144865 5.8163551,9.0626791 5.7376672,8.9813014 5.6742615,8.8868808 5.5948541,8.7686333 5.5314206,8.6378043 5.4746672,8.5050673 5.4206499,8.3787202 5.3737516,8.2477897 5.3416055,8.112934 5.30787,7.9714074 5.2891056,7.8253668 5.2798246,7.6795235 5.2728702,7.5696952 5.2705941,7.4583449 5.2846295,7.3493082 5.2981717,7.2435271 5.3258125,7.1396017 5.3606607,7.0397281 5.3957997,6.9390314 5.4407129,6.8418015 5.4937236,6.7507867 5.5431762,6.6658732 5.5985084,6.5835335 5.6648047,6.5134439 5.7410635,6.4328031 5.8276605,6.3617732 5.9214256,6.3070575 c 0.097995,-0.05718 0.2063883,-0.09179 0.3136489,-0.1238326 0.065296,-0.019504 0.1321663,-0.034363 0.1995956,-0.041273 0.095416,-0.00981 0.1921821,-0.01071 0.2875114,-3.4e-6 0.092557,0.010372 0.1855842,0.02806 0.2732535,0.061916 0.071428,0.027576 0.1375364,0.070145 0.2019702,0.1135125 0.059252,0.039875 0.1174419,0.082873 0.1687065,0.1341491 0.046254,0.046267 0.082253,0.1033008 0.1235618,0.1547901 0.04423,0.055151 0.088714,0.1100763 0.1330616,0.1651089 0.028513,0.044723 0.057027,0.089434 0.08554,0.1341524 C 7.7526314,6.8402234 7.7931444,6.7715788 7.8413389,6.7095092 7.9149934,6.614652 7.9909636,6.5203783 8.0789502,6.4412065 8.1547289,6.3730233 8.2372767,6.3118713 8.3260675,6.26578 8.4282099,6.2127593 8.5380408,6.175455 8.6492199,6.1522673 c 0.093543,-0.019504 0.1899644,-0.024971 0.2851355,-0.020631 0.1056573,0.00485 0.2126156,0.017722 0.3136489,0.051589 0.090711,0.030417 0.1756254,0.08037 0.2566209,0.1341513 0.098386,0.065319 0.193597,0.1390227 0.275631,0.2270264 0.070652,0.075804 0.1312885,0.1632892 0.1829631,0.2554021 0.042215,0.075252 0.076369,0.1563865 0.1021627,0.2399234 0.02371,0.076763 0.03635,0.157294 0.04751,0.2373428 0.011,0.078521 0.01806,0.1579375 0.01901,0.2373437 0.0016,0.1137121 -0.0065,0.2276407 -0.01901,0.3405389 -0.01398,0.1255698 -0.0348,0.2504846 -0.06259,0.3733171 -0.01886,0.083347 -0.03835,0.1674153 -0.070466,0.2458406 -0.0404,0.098645 -0.0946,0.1905173 -0.1520704,0.27862 C 9.7393809,8.8882337 9.6379694,9.0136693 9.5331252,9.134546 9.3687229,9.3240819 9.1846282,9.4922832 9.0103784,9.6711494"
     id="path25" />
  <path
     style="fill:#e0e0e0;stroke-width:0.0550027"
     d="m 12.406802,4.6897039 0.685537,-2.0865444 c 0,0 1.73965,-0.062061 2.208954,0 0.469302,0.062061 0.490783,0.049999 0.609366,0.1636501 0.11858,0.1136546 0.112145,0.2043741 0.114256,0.3273024 0.0022,0.1229261 -0.02043,0.2646635 -0.114256,0.3682124 -0.09382,0.1035489 -0.0741,0.098025 -0.418941,0.1636501 -0.344847,0.065624 -1.655518,0.00338 -1.655518,0.00338 L 13.513035,4.627426 Z"
     id="path26" />
  <path
     style="fill:#000000;fill-opacity:1;stroke-width:0.0550027"
     d="m 4.4469543,2.2758571 c -0.1142555,0 -0.2285123,0 -0.3427678,0"
     id="path41" />
  <path
     style="fill:#000000;fill-opacity:1;stroke-width:0.264583"
     d="m 81.839617,73.864527 c -2.058229,0.49335 -3.978712,1.388354 -5.886376,2.278597 -0.513009,0.239406 -1.005049,0.522296 -1.519066,0.759532 -0.309478,0.142838 -0.665811,0.190698 -0.949415,0.379767 -0.297913,0.198609 -0.473093,0.544703 -0.759531,0.759531 -1.301028,0.975773 -1.089353,0.2549 -1.898833,2.2786 -0.142605,0.356515 0.03133,1.154961 0.379767,1.329179 0.323033,0.161518 3.899448,0 4.17743,0 1.76195,0 4.415401,0.237268 6.076259,0 1.505654,-0.215093 0.01188,-0.194635 1.89883,-0.949415 0.235069,-0.09403 0.512384,0.05492 0.759531,0 0.332735,-0.07394 0.621681,-0.286126 0.949418,-0.379764 0.121716,-0.03478 0.259673,0.04003 0.379764,0 0.852623,-0.284208 3.213381,-2.074082 3.797663,-2.658364 0.221385,-0.221385 0.503367,-0.428125 0.56965,-0.759534 0.01966,-0.09826 0.08968,-1.652897 0,-1.708947 -1.642835,-1.026771 -3.860112,-0.955661 -5.696495,-1.139298 -1.258779,-0.125878 -2.528347,-0.189884 -3.797659,-0.189884"
     id="path42"
     clip-path="url(#clipPath75)"
     transform="matrix(0.20057285,0,0,0.21546238,-13.377012,-13.598256)" />
</svg>
