<?xml version="1.0" encoding="UTF-8"?>
<svg class="bi bi-trash" width="30" height="30" version="1.1" viewBox="0 0 16 16" xmlns="http://www.w3.org/2000/svg">
 <path d="m5.5278 6.0553c0.27614 0 0.51963 0.22386 0.51963 0.5v6c0 0.66667-1 0.66667-1 0v-6c0-0.27614 0.22386-0.5 0.5-0.5m2.4804 0c0.27614 0 0.5 0.22386 0.5 0.5v6c0 0.66667-1 0.66667-1 0v-6c0-0.27614 0.22386-0.5 0.5-0.5m3 0.5c0-0.66667-1-0.66667-1 0v6c0 0.66667 1 0.66667 1 0z" fill="#e0e0e0"/>
 <path d="m14.528 3.5553c0 0.55228-0.44772 1-1 1h-0.5v9c0 1.1046-0.89543 2-2 2h-6c-1.1046 0-2-0.89543-2-2v-9h-0.5c-0.55228 0-1-0.44772-1-1v-1c0-0.55228 0.44772-1 1-1h3.5c0-0.55228 0.44772-1 1-1h2c0.55228 0 1 0.44772 1 1h3.5c0.55228 0 1 0.44772 1 1zm-10.382 1-0.118 0.059v8.941c0 0.55228 0.44772 1 1 1h6c0.55228 0 1-0.44772 1-1v-8.941l-4.0051 0.6183zm-1.618-1h11v-1h-11z" fill="#e0e0e0"/>
</svg>
