<?xml version="1.0" encoding="UTF-8" standalone="no"?>
<svg
   width="16"
   height="16"
   fill="currentColor"
   class="bi bi-facebook"
   viewBox="0 0 16 16"
   version="1.1"
   id="svg1"
   sodipodi:docname="ubicacionbuena.svg"
   inkscape:version="1.4 (86a8ad7, 2024-10-11)"
   xmlns:inkscape="http://www.inkscape.org/namespaces/inkscape"
   xmlns:sodipodi="http://sodipodi.sourceforge.net/DTD/sodipodi-0.dtd"
   xmlns:xlink="http://www.w3.org/1999/xlink"
   xmlns="http://www.w3.org/2000/svg"
   xmlns:svg="http://www.w3.org/2000/svg">
  <defs
     id="defs1">
    <clipPath
       clipPathUnits="userSpaceOnUse"
       id="clipPath13">
      <use
         x="0"
         y="0"
         xlink:href="#g12"
         id="use13" />
    </clipPath>
  </defs>
  <sodipodi:namedview
     id="namedview1"
     pagecolor="#505050"
     bordercolor="#eeeeee"
     borderopacity="1"
     inkscape:showpageshadow="0"
     inkscape:pageopacity="0"
     inkscape:pagecheckerboard="0"
     inkscape:deskcolor="#505050"
     inkscape:zoom="34.5625"
     inkscape:cx="6.1048825"
     inkscape:cy="12.282098"
     inkscape:window-width="1366"
     inkscape:window-height="705"
     inkscape:window-x="-8"
     inkscape:window-y="-8"
     inkscape:window-maximized="1"
     inkscape:current-layer="svg1" />
  <circle
     style="fill:#88ac27;stroke-width:0.0314684;paint-order:stroke fill markers"
     id="path1"
     cx="8.0281162"
     cy="8.0023079"
     r="8.0010004" />
  <g
     id="g13"
     clip-path="url(#clipPath13)"
     style="fill:#4d182e;fill-opacity:1"
     transform="matrix(0.12714816,0,0,0.11779218,-5.7477006,-8.3023075)">
    <g
       inkscape:label="Clip"
       id="g12"
       style="fill:#4d182e;fill-opacity:1">
      <g
         inkscape:label="Clip"
         id="g11"
         style="fill:#4d182e;fill-opacity:1">
        <path
           style="fill:#4d182e;fill-opacity:1;stroke-width:0.266999;paint-order:stroke fill markers"
           d="m 108.9929,182.95237 c 0,0 -17.037893,-26.52785 -24.58986,-40.35016 -0.624339,-1.14272 -1.193178,-2.31718 -1.708949,-3.51284 -0.495889,-1.14957 -0.939711,-2.32299 -1.329182,-3.51283 -0.367843,-1.12377 -0.693626,-2.26346 -0.949415,-3.4179 -0.166572,-0.75178 -0.286854,-1.51422 -0.379767,-2.2786 -0.04979,-0.40961 -0.0791,-0.82192 -0.09494,-1.23424 -0.05951,-1.54957 -0.127903,-3.1067 0,-4.65213 0.111144,-1.34293 0.339769,-2.67977 0.664591,-3.98755 0.410104,-1.65114 0.971493,-3.2667 1.614006,-4.84202 0.491769,-1.20572 1.041712,-2.39462 1.708949,-3.51283 0.639056,-1.07099 1.376119,-2.08772 2.183653,-3.03814 1.043257,-1.22785 2.194488,-2.36943 3.417896,-3.41789 1.220811,-1.04624 2.529794,-1.99518 3.892605,-2.84825 1.031981,-0.64599 2.12877,-1.18554 3.228012,-1.70894 1.241878,-0.59132 2.472717,-1.244633 3.797661,-1.614011 1.50892,-0.420667 3.09271,-0.516406 4.65214,-0.664591 1.98708,-0.188821 3.98803,-0.389635 5.98131,-0.284826 1.24704,0.06557 2.48501,0.29294 3.70273,0.56965 1.06413,0.241808 2.1006,0.596092 3.13307,0.949415 1.08992,0.372982 2.18109,0.753623 3.22801,1.234243 1.20968,0.55534 2.38113,1.19814 3.51284,1.89883 0.88835,0.55002 1.75151,1.14626 2.56342,1.80389 0.93967,0.7611 1.80126,1.61547 2.65836,2.46848 0.49196,0.48961 1.42413,1.51906 1.42413,1.51906 l 1.614,2.46848 1.32918,2.37354 1.23424,2.56343 0.94942,2.27859 c 0,0 0.73047,2.14153 1.04436,3.22801 0.23115,0.80009 0.50306,1.59605 0.61712,2.42101 0.25799,1.86586 0.14241,5.64903 0.14241,5.64903 l -0.56965,3.22801 -1.04436,3.41789 -1.42412,3.03813 -12.72217,20.98209 z"
           id="path11"
           sodipodi:nodetypes="caaaaaaaaaaaaaaaaaaaaaaacccccaacccccc" />
      </g>
    </g>
  </g>
  <g
     id="g17"
     clip-path="none"
     transform="matrix(0.11016868,0,0,0.1065025,-3.9963506,-6.9198275)">
    <g
       inkscape:label="Clip"
       id="g16">
      <circle
         style="fill:#ffffff;fill-opacity:1;stroke-width:0.249859;paint-order:stroke fill markers"
         id="path16"
         cx="109.07963"
         cy="125.49056"
         r="13.5" />
    </g>
  </g>
  <use
     x="0"
     y="0"
     xlink:href="#g16"
     id="use17"
     style="fill:#4b8000;fill-opacity:1"
     transform="matrix(0.11016868,0,0,0.1065025,-3.8214506,-6.8634675)" />
</svg>
