<?xml version="1.0" encoding="UTF-8"?>
<svg class="bi bi-facebook" width="16" height="16" fill="currentColor" version="1.1" viewBox="0 0 16 16" xmlns="http://www.w3.org/2000/svg">
 <defs>
  <marker id="Tail" overflow="visible" markerHeight="1" markerWidth="1" orient="auto-start-reverse" preserveAspectRatio="xMidYMid" viewBox="0 0 1 1">
   <path d="m-3-3-3.1102 3 3.1102 3m3-6-3 3 3 3m3 0-3-3 3-3" fill="none" stroke="context-stroke" stroke-linecap="round"/>
  </marker>
 </defs>
 <g>
  <ellipse cx="8.0533" cy="8.0439" rx="7.9455" ry="8" fill="#1e1e1e" marker-start="url(#Tail)" stroke-width=".03114" style="paint-order:stroke fill markers"/>
  <path d="m8.024 2.017a2.2652 2.2807 0 0 0-2.2652 2.2807 2.2652 2.2807 0 0 0 2.2652 2.2807 2.2652 2.2807 0 0 0 2.2651-2.2807 2.2652 2.2807 0 0 0-2.2651-2.2807z" fill="#88ac27" stroke-width=".032324"/>
  <path d="m3.0037 10.895c-0.0247-0.20984 0.0725-0.41944 0.15084-0.61547 0.0542-0.13572 0.12705-0.26593 0.21786-0.38014 0.13755-0.17297 0.3123-0.31381 0.48578-0.45016 0.14925-0.11731 0.31128-0.2178 0.47461-0.31424 0.19926-0.11768 0.40323-0.22873 0.61498-0.32172 0.37522-0.16478 1.1564-0.41634 1.1564-0.41634s0.8217-0.22563 1.2419-0.28915c0.24026-0.0363 0.48409-0.054 0.72703-0.0519 0.27209 2e-3 0.54409 0.0315 0.81314 0.0724 0.4181 0.0636 0.83756 0.13851 1.2402 0.26866 0.51604 0.16681 1.0116 0.39823 1.4916 0.65167 0.29135 0.15383 0.58342 0.31513 0.83797 0.52495 0.10719 0.0884 0.20067 0.19392 0.2849 0.30466 0.0778 0.10221 0.14672 0.21239 0.20111 0.32891 0.0592 0.12686 0.0994 0.26248 0.13407 0.39825 0.0318 0.12465 0.0904 0.25362 0.067 0.38014-0.0543 0.29355-0.26533 0.54167-0.46057 0.76644-0.29987 0.34523-0.68857 0.60376-1.0645 0.86274-0.43622 0.3005-1.3742 0.79648-1.3742 0.79648h-4.458s-0.54664-0.27169-0.80444-0.43445c-0.19882-0.12552-0.3873-0.26781-0.56981-0.41634-0.25111-0.20436-0.49643-0.41774-0.72064-0.65167-0.15728-0.1641-0.31029-0.33508-0.43574-0.52496-0.10088-0.15276-0.22995-0.30656-0.25139-0.48875z" fill="#88ac27" stroke-width=".034323"/>
 </g>
</svg>
