<?xml version="1.0" encoding="UTF-8" standalone="no"?>
<svg
   width="16"
   height="16"
   fill="currentColor"
   class="bi bi-facebook"
   viewBox="0 0 16 16"
   version="1.1"
   id="svg1"
   xmlns="http://www.w3.org/2000/svg"
   xmlns:svg="http://www.w3.org/2000/svg">
  <defs
     id="defs1">
    <marker
       style="overflow:visible"
       id="Tail"
       refX="0"
       refY="0"
       orient="auto-start-reverse"
       markerWidth="1"
       markerHeight="1"
       viewBox="0 0 1 1"
       preserveAspectRatio="xMidYMid">
      <path
         style="fill:none;fill-rule:evenodd;stroke:context-stroke;stroke-width:1;stroke-linecap:round"
         d="m -3.0000001,-3 -3.1102256,3 3.1102256,3 M -4.0952644e-8,-3 -3.0000001,0 -4.0952644e-8,3 M 3,3 -4.0952644e-8,0 3,-3"
         id="path10" />
    </marker>
  </defs>
  <ellipse
     style="fill:#1e1e1e;fill-opacity:1;stroke-width:0.0311405;stroke-dasharray:none;marker-start:url(#Tail);paint-order:stroke fill markers"
     id="path1-6"
     cx="8.0533028"
     cy="8.0439415"
     rx="7.9455037"
     ry="8" />
  <path
     d="m 8.0239576,2.016997 a 2.2651703,2.2806882 0 0 0 -2.2652,2.2807 2.2651703,2.2806882 0 0 0 2.2652,2.2807 2.2651703,2.2806882 0 0 0 2.2651304,-2.2807 2.2651703,2.2806882 0 0 0 -2.2651304,-2.2807 z"
     style="fill:#88ac27;fill-opacity:1;stroke-width:0.032324"
     id="path3" />
  <path
     style="fill:#88ac27;fill-opacity:1;stroke-width:0.0343227"
     d="m 3.0037076,10.895287 c -0.0247,-0.20984 0.0725,-0.41944 0.15084,-0.61547 0.0542,-0.13572 0.12705,-0.26593 0.21786,-0.38014 0.13755,-0.17297 0.3123,-0.31381 0.48578,-0.45016 0.14925,-0.11731 0.31128,-0.2178 0.47461,-0.31424 0.19926,-0.11768 0.40323,-0.22873 0.61498,-0.32172 0.37522,-0.16478 1.15638,-0.41634 1.15638,-0.41634 0,0 0.8217,-0.22563 1.24186,-0.28915 0.24026,-0.0363 0.48409,-0.054 0.72703,-0.0519 0.27209,0.002 0.54409,0.0315 0.81314,0.0724 0.4181,0.0636 0.83756,0.13851 1.2401704,0.26866 0.51604,0.16681 1.01159,0.39823 1.49156,0.65167 0.29135,0.15383 0.58342,0.31513 0.83797,0.52495 0.10719,0.0884 0.20067,0.19392 0.2849,0.30466 0.0778,0.10221 0.14672,0.21239 0.20111,0.32891 0.0592,0.12686 0.0994,0.26248 0.13407,0.39825 0.0318,0.12465 0.0904,0.25362 0.067,0.38014 -0.0543,0.29355 -0.26533,0.54167 -0.46057,0.76644 -0.29987,0.34523 -0.68857,0.60376 -1.06452,0.86274 -0.43622,0.3005 -1.37424,0.79648 -1.37424,0.79648 H 5.7856876 c 0,0 -0.54664,-0.27169 -0.80444,-0.43445 -0.19882,-0.12552 -0.3873,-0.26781 -0.56981,-0.41634 -0.25111,-0.20436 -0.49643,-0.41774 -0.72064,-0.65167 -0.15728,-0.1641 -0.31029,-0.33508 -0.43574,-0.52496 -0.10088,-0.15276 -0.22995,-0.30656 -0.25139,-0.48875 z"
     id="path4" />
</svg>
